<mxfile host="app.diagrams.net" agent="Mozilla/5.0 (Windows NT 10.0; Win64; x64) AppleWebKit/537.36 (KHTML, like Gecko) Chrome/134.0.0.0 Safari/537.36" version="26.1.1">
  <diagram name="Page-1" id="toyqWjw3-tFAEOU__Un6">
    <mxGraphModel grid="1" page="1" gridSize="10" guides="1" tooltips="1" connect="1" arrows="1" fold="1" pageScale="1" pageWidth="827" pageHeight="1169" math="0" shadow="0">
      <root>
        <mxCell id="0" />
        <mxCell id="1" parent="0" />
        <mxCell id="SpyZkMs1lM7mogaTS6Ty-48" value="&lt;font style=&quot;font-size: 18px;&quot;&gt;Regional Integration Engine - NHS England Genomic Order Management Registry Adaptor&lt;/font&gt;" style="rounded=0;whiteSpace=wrap;html=1;verticalAlign=bottom;" vertex="1" parent="1">
          <mxGeometry x="20" y="-230" width="950" height="800" as="geometry" />
        </mxCell>
        <mxCell id="SpyZkMs1lM7mogaTS6Ty-1" value="" style="edgeStyle=orthogonalEdgeStyle;rounded=0;exitX=0;exitY=0.5;endArrow=none;dashed=0;html=1;strokeColor=#808080;strokeWidth=2;" edge="1" parent="1" source="SpyZkMs1lM7mogaTS6Ty-3" target="SpyZkMs1lM7mogaTS6Ty-2">
          <mxGeometry relative="1" as="geometry" />
        </mxCell>
        <mxCell id="SpyZkMs1lM7mogaTS6Ty-2" value="" style="strokeWidth=2;dashed=0;align=center;fontSize=8;shape=ellipse;fillColor=#808080;strokeColor=none;" vertex="1" parent="1">
          <mxGeometry x="-80" y="195" width="12" height="12" as="geometry" />
        </mxCell>
        <mxCell id="SpyZkMs1lM7mogaTS6Ty-3" value="D" style="strokeWidth=2;dashed=0;align=center;fontSize=8;shape=rect;fillColor=#C7A0FF;fontStyle=1;whiteSpace=wrap;html=1;" vertex="1" parent="1">
          <mxGeometry x="-64" y="213" width="12" height="12" as="geometry" />
        </mxCell>
        <mxCell id="SpyZkMs1lM7mogaTS6Ty-4" value="" style="rounded=0;whiteSpace=wrap;html=1;strokeColor=none;" vertex="1" parent="1">
          <mxGeometry x="-100" y="125" width="80" height="170" as="geometry" />
        </mxCell>
        <mxCell id="SpyZkMs1lM7mogaTS6Ty-5" value="" style="edgeStyle=orthogonalEdgeStyle;rounded=0;exitX=0;exitY=0.5;endArrow=none;dashed=0;html=1;strokeColor=#808080;strokeWidth=2;" edge="1" parent="1" source="SpyZkMs1lM7mogaTS6Ty-7" target="SpyZkMs1lM7mogaTS6Ty-6">
          <mxGeometry relative="1" as="geometry" />
        </mxCell>
        <mxCell id="SpyZkMs1lM7mogaTS6Ty-6" value="" style="strokeWidth=2;dashed=0;align=center;fontSize=8;shape=ellipse;fillColor=#808080;strokeColor=none;" vertex="1" parent="1">
          <mxGeometry x="-80" y="195" width="12" height="12" as="geometry" />
        </mxCell>
        <mxCell id="SpyZkMs1lM7mogaTS6Ty-7" value="D" style="strokeWidth=2;dashed=0;align=center;fontSize=8;shape=rect;fillColor=#C7A0FF;fontStyle=1;whiteSpace=wrap;html=1;" vertex="1" parent="1">
          <mxGeometry x="-64" y="213" width="12" height="12" as="geometry" />
        </mxCell>
        <mxCell id="SpyZkMs1lM7mogaTS6Ty-8" value="" style="edgeStyle=orthogonalEdgeStyle;rounded=0;exitX=0;exitY=0.5;endArrow=none;dashed=0;html=1;strokeColor=#808080;strokeWidth=2;" edge="1" parent="1" source="SpyZkMs1lM7mogaTS6Ty-10" target="SpyZkMs1lM7mogaTS6Ty-9">
          <mxGeometry relative="1" as="geometry" />
        </mxCell>
        <mxCell id="SpyZkMs1lM7mogaTS6Ty-9" value="" style="strokeWidth=2;dashed=0;align=center;fontSize=8;shape=ellipse;fillColor=#808080;strokeColor=none;" vertex="1" parent="1">
          <mxGeometry x="-80" y="145" width="12" height="12" as="geometry" />
        </mxCell>
        <mxCell id="SpyZkMs1lM7mogaTS6Ty-10" value="E" style="strokeWidth=2;dashed=0;align=center;fontSize=8;shape=rect;fillColor=#83BEFF;fontStyle=1;whiteSpace=wrap;html=1;" vertex="1" parent="1">
          <mxGeometry x="-64" y="163" width="12" height="12" as="geometry" />
        </mxCell>
        <mxCell id="SpyZkMs1lM7mogaTS6Ty-22" style="edgeStyle=orthogonalEdgeStyle;rounded=0;orthogonalLoop=1;jettySize=auto;html=1;entryX=0;entryY=0.5;entryDx=0;entryDy=0;entryPerimeter=0;exitX=1;exitY=0.25;exitDx=0;exitDy=0;" edge="1" parent="1" source="SpyZkMs1lM7mogaTS6Ty-4" target="SpyZkMs1lM7mogaTS6Ty-27">
          <mxGeometry relative="1" as="geometry">
            <mxPoint x="40" y="210" as="targetPoint" />
          </mxGeometry>
        </mxCell>
        <mxCell id="SpyZkMs1lM7mogaTS6Ty-27" value="&lt;span style=&quot;font-size: 16px;&quot;&gt;Outgoing Messages&lt;/span&gt;" style="fillColor=#c0f5a9;dashed=0;outlineConnect=0;strokeWidth=2;html=1;align=center;fontSize=8;verticalLabelPosition=bottom;verticalAlign=top;shape=mxgraph.eip.messaging_gateway;" vertex="1" parent="1">
          <mxGeometry x="130" y="80" width="110" height="70" as="geometry" />
        </mxCell>
        <mxCell id="SpyZkMs1lM7mogaTS6Ty-33" value="&lt;font style=&quot;font-size: 16px;&quot;&gt;FHIR Based Server&lt;br&gt;&lt;span style=&quot;font-size: 18px; text-wrap-mode: wrap;&quot;&gt;&amp;nbsp;(NHS England GOMS)&lt;/span&gt;&lt;/font&gt;" style="html=1;strokeWidth=2;outlineConnect=0;dashed=0;align=center;fontSize=8;verticalLabelPosition=bottom;verticalAlign=top;shape=mxgraph.eip.message_store;fillColor=#c0f5a9" vertex="1" parent="1">
          <mxGeometry x="1040" y="270" width="115" height="60" as="geometry" />
        </mxCell>
        <mxCell id="GK4ACq8TZ_gD5xzpB5Gy-1" value="" style="edgeStyle=orthogonalEdgeStyle;rounded=0;exitX=0;exitY=0.5;endArrow=none;dashed=0;html=1;strokeColor=#808080;strokeWidth=2;" edge="1" parent="1" source="GK4ACq8TZ_gD5xzpB5Gy-3" target="GK4ACq8TZ_gD5xzpB5Gy-2">
          <mxGeometry relative="1" as="geometry" />
        </mxCell>
        <mxCell id="GK4ACq8TZ_gD5xzpB5Gy-2" value="" style="strokeWidth=2;dashed=0;align=center;fontSize=8;shape=ellipse;fillColor=#808080;strokeColor=none;" vertex="1" parent="1">
          <mxGeometry x="-78" y="245" width="12" height="12" as="geometry" />
        </mxCell>
        <mxCell id="GK4ACq8TZ_gD5xzpB5Gy-3" value="C" style="strokeWidth=2;dashed=0;align=center;fontSize=8;shape=rect;fillColor=#FF8080;fontStyle=1;whiteSpace=wrap;html=1;" vertex="1" parent="1">
          <mxGeometry x="-62" y="263" width="12" height="12" as="geometry" />
        </mxCell>
        <mxCell id="o5wvPpWDI44FTp9hOl_Q-2" style="edgeStyle=orthogonalEdgeStyle;rounded=0;orthogonalLoop=1;jettySize=auto;html=1;entryX=1;entryY=0.75;entryDx=0;entryDy=0;" edge="1" parent="1" source="o5wvPpWDI44FTp9hOl_Q-1" target="SpyZkMs1lM7mogaTS6Ty-4">
          <mxGeometry relative="1" as="geometry" />
        </mxCell>
        <mxCell id="o5wvPpWDI44FTp9hOl_Q-1" value="&lt;span style=&quot;font-size: 16px;&quot;&gt;Incoming Messages&lt;/span&gt;" style="fillColor=#c0f5a9;dashed=0;outlineConnect=0;strokeWidth=2;html=1;align=center;fontSize=8;verticalLabelPosition=bottom;verticalAlign=top;shape=mxgraph.eip.messaging_gateway;" vertex="1" parent="1">
          <mxGeometry x="130" y="270" width="110" height="70" as="geometry" />
        </mxCell>
        <mxCell id="o5wvPpWDI44FTp9hOl_Q-3" value="&lt;font style=&quot;font-size: 16px;&quot;&gt;Polling Consumer&lt;/font&gt;" style="fillColor=#c0f5a9;dashed=0;outlineConnect=0;strokeWidth=2;html=1;align=center;fontSize=8;verticalLabelPosition=bottom;verticalAlign=top;shape=mxgraph.eip.polling_consumer;" vertex="1" parent="1">
          <mxGeometry x="410" y="270" width="110" height="60" as="geometry" />
        </mxCell>
        <mxCell id="o5wvPpWDI44FTp9hOl_Q-4" style="edgeStyle=orthogonalEdgeStyle;rounded=0;orthogonalLoop=1;jettySize=auto;html=1;entryX=0;entryY=0.5;entryDx=0;entryDy=0;entryPerimeter=0;" edge="1" parent="1" source="o5wvPpWDI44FTp9hOl_Q-3" target="SpyZkMs1lM7mogaTS6Ty-33">
          <mxGeometry relative="1" as="geometry">
            <Array as="points">
              <mxPoint x="740" y="300" />
              <mxPoint x="740" y="300" />
            </Array>
          </mxGeometry>
        </mxCell>
        <mxCell id="o5wvPpWDI44FTp9hOl_Q-6" style="edgeStyle=orthogonalEdgeStyle;rounded=0;orthogonalLoop=1;jettySize=auto;html=1;entryX=-0.002;entryY=0.659;entryDx=0;entryDy=0;entryPerimeter=0;exitX=0.25;exitY=1;exitDx=0;exitDy=0;exitPerimeter=0;" edge="1" parent="1" source="SpyZkMs1lM7mogaTS6Ty-33" target="o5wvPpWDI44FTp9hOl_Q-12">
          <mxGeometry relative="1" as="geometry">
            <Array as="points">
              <mxPoint x="1070" y="330" />
              <mxPoint x="1070" y="430" />
              <mxPoint x="520" y="430" />
            </Array>
          </mxGeometry>
        </mxCell>
        <mxCell id="o5wvPpWDI44FTp9hOl_Q-8" value="&lt;font style=&quot;font-size: 16px;&quot;&gt;Process Message&lt;/font&gt;" style="html=1;strokeWidth=2;outlineConnect=0;dashed=0;align=center;fontSize=8;fillColor=#c0f5a9;verticalLabelPosition=bottom;verticalAlign=top;shape=mxgraph.eip.splitter;" vertex="1" parent="1">
          <mxGeometry x="414" y="85" width="110" height="60" as="geometry" />
        </mxCell>
        <mxCell id="o5wvPpWDI44FTp9hOl_Q-9" style="edgeStyle=orthogonalEdgeStyle;rounded=0;orthogonalLoop=1;jettySize=auto;html=1;entryX=0;entryY=0.5;entryDx=0;entryDy=0;entryPerimeter=0;" edge="1" parent="1" source="SpyZkMs1lM7mogaTS6Ty-27" target="o5wvPpWDI44FTp9hOl_Q-8">
          <mxGeometry relative="1" as="geometry" />
        </mxCell>
        <mxCell id="o5wvPpWDI44FTp9hOl_Q-11" value="" style="edgeStyle=orthogonalEdgeStyle;rounded=0;orthogonalLoop=1;jettySize=auto;html=1;entryX=1;entryY=0.5;entryDx=0;entryDy=0;entryPerimeter=0;" edge="1" parent="1" target="o5wvPpWDI44FTp9hOl_Q-1">
          <mxGeometry relative="1" as="geometry">
            <mxPoint x="410" y="440" as="sourcePoint" />
            <mxPoint x="240" y="300" as="targetPoint" />
          </mxGeometry>
        </mxCell>
        <mxCell id="o5wvPpWDI44FTp9hOl_Q-12" value="&lt;font style=&quot;font-size: 16px;&quot;&gt;Assemble Message&lt;/font&gt;" style="html=1;strokeWidth=2;outlineConnect=0;dashed=0;align=center;fontSize=8;fillColor=#c0f5a9;verticalLabelPosition=bottom;verticalAlign=top;shape=mxgraph.eip.aggregator;direction=west;" vertex="1" parent="1">
          <mxGeometry x="410" y="410" width="110" height="60" as="geometry" />
        </mxCell>
        <mxCell id="o5wvPpWDI44FTp9hOl_Q-13" value="&lt;font style=&quot;font-size: 16px;&quot;&gt;Pa&lt;font style=&quot;&quot;&gt;tient Master Identity &lt;br&gt;Registry Service&lt;/font&gt;&lt;/font&gt;" style="html=1;strokeWidth=2;outlineConnect=0;dashed=0;align=center;fontSize=8;fillColor=#c0f5a9;verticalLabelPosition=bottom;verticalAlign=top;shape=mxgraph.eip.process_manager;" vertex="1" parent="1">
          <mxGeometry x="680" y="-170" width="111" height="65" as="geometry" />
        </mxCell>
        <mxCell id="o5wvPpWDI44FTp9hOl_Q-14" style="edgeStyle=orthogonalEdgeStyle;rounded=0;orthogonalLoop=1;jettySize=auto;html=1;entryX=0;entryY=0.5;entryDx=0;entryDy=0;entryPerimeter=0;" edge="1" parent="1" source="o5wvPpWDI44FTp9hOl_Q-8" target="o5wvPpWDI44FTp9hOl_Q-13">
          <mxGeometry relative="1" as="geometry" />
        </mxCell>
        <mxCell id="o5wvPpWDI44FTp9hOl_Q-15" style="edgeStyle=orthogonalEdgeStyle;rounded=0;orthogonalLoop=1;jettySize=auto;html=1;entryX=0.75;entryY=0;entryDx=0;entryDy=0;entryPerimeter=0;" edge="1" parent="1" source="o5wvPpWDI44FTp9hOl_Q-13" target="SpyZkMs1lM7mogaTS6Ty-33">
          <mxGeometry relative="1" as="geometry" />
        </mxCell>
        <mxCell id="o5wvPpWDI44FTp9hOl_Q-16" value="&lt;font style=&quot;font-size: 16px;&quot;&gt;Health Provider&amp;nbsp;&lt;/font&gt;&lt;div&gt;&lt;font style=&quot;font-size: 16px;&quot;&gt;Directory Service&lt;/font&gt;&lt;/div&gt;" style="html=1;strokeWidth=2;outlineConnect=0;dashed=0;align=center;fontSize=8;fillColor=#c0f5a9;verticalLabelPosition=bottom;verticalAlign=top;shape=mxgraph.eip.process_manager;" vertex="1" parent="1">
          <mxGeometry x="680" y="-40" width="111" height="65" as="geometry" />
        </mxCell>
        <mxCell id="o5wvPpWDI44FTp9hOl_Q-19" style="edgeStyle=orthogonalEdgeStyle;rounded=0;orthogonalLoop=1;jettySize=auto;html=1;entryX=0.5;entryY=0;entryDx=0;entryDy=0;entryPerimeter=0;" edge="1" parent="1" source="o5wvPpWDI44FTp9hOl_Q-16" target="SpyZkMs1lM7mogaTS6Ty-33">
          <mxGeometry relative="1" as="geometry" />
        </mxCell>
        <mxCell id="o5wvPpWDI44FTp9hOl_Q-21" style="edgeStyle=orthogonalEdgeStyle;rounded=0;orthogonalLoop=1;jettySize=auto;html=1;entryX=0;entryY=0.5;entryDx=0;entryDy=0;entryPerimeter=0;" edge="1" parent="1" source="o5wvPpWDI44FTp9hOl_Q-8" target="o5wvPpWDI44FTp9hOl_Q-20">
          <mxGeometry relative="1" as="geometry" />
        </mxCell>
        <mxCell id="o5wvPpWDI44FTp9hOl_Q-22" value="" style="edgeStyle=orthogonalEdgeStyle;rounded=0;orthogonalLoop=1;jettySize=auto;html=1;" edge="1" parent="1" source="o5wvPpWDI44FTp9hOl_Q-8" target="o5wvPpWDI44FTp9hOl_Q-20">
          <mxGeometry relative="1" as="geometry">
            <mxPoint x="440" y="115" as="sourcePoint" />
            <mxPoint x="616" y="45" as="targetPoint" />
          </mxGeometry>
        </mxCell>
        <mxCell id="o5wvPpWDI44FTp9hOl_Q-20" value="&lt;font style=&quot;font-size: 16px;&quot;&gt;Order and Report Service&lt;/font&gt;" style="html=1;strokeWidth=2;outlineConnect=0;dashed=0;align=center;fontSize=8;fillColor=#c0f5a9;verticalLabelPosition=bottom;verticalAlign=top;shape=mxgraph.eip.process_manager;" vertex="1" parent="1">
          <mxGeometry x="680" y="82.5" width="111" height="65" as="geometry" />
        </mxCell>
        <mxCell id="o5wvPpWDI44FTp9hOl_Q-23" style="edgeStyle=orthogonalEdgeStyle;rounded=0;orthogonalLoop=1;jettySize=auto;html=1;entryX=0.25;entryY=0;entryDx=0;entryDy=0;entryPerimeter=0;" edge="1" parent="1" source="o5wvPpWDI44FTp9hOl_Q-20" target="SpyZkMs1lM7mogaTS6Ty-33">
          <mxGeometry relative="1" as="geometry" />
        </mxCell>
        <mxCell id="o5wvPpWDI44FTp9hOl_Q-24" style="edgeStyle=orthogonalEdgeStyle;rounded=0;orthogonalLoop=1;jettySize=auto;html=1;entryX=0;entryY=0.5;entryDx=0;entryDy=0;entryPerimeter=0;" edge="1" parent="1" source="o5wvPpWDI44FTp9hOl_Q-8" target="o5wvPpWDI44FTp9hOl_Q-16">
          <mxGeometry relative="1" as="geometry" />
        </mxCell>
        <mxCell id="o5wvPpWDI44FTp9hOl_Q-25" value="NHS Trusts" style="rounded=1;whiteSpace=wrap;html=1;" vertex="1" parent="1">
          <mxGeometry x="-660" y="25" width="120" height="60" as="geometry" />
        </mxCell>
        <mxCell id="o5wvPpWDI44FTp9hOl_Q-26" value="GLH iGene" style="rounded=1;whiteSpace=wrap;html=1;" vertex="1" parent="1">
          <mxGeometry x="-660" y="310" width="120" height="60" as="geometry" />
        </mxCell>
        <mxCell id="o5wvPpWDI44FTp9hOl_Q-27" style="edgeStyle=orthogonalEdgeStyle;rounded=0;orthogonalLoop=1;jettySize=auto;html=1;entryX=0.75;entryY=1;entryDx=0;entryDy=0;entryPerimeter=0;exitX=0;exitY=0.25;exitDx=0;exitDy=0;exitPerimeter=0;" edge="1" parent="1" source="o5wvPpWDI44FTp9hOl_Q-12" target="SpyZkMs1lM7mogaTS6Ty-33">
          <mxGeometry relative="1" as="geometry" />
        </mxCell>
        <mxCell id="o5wvPpWDI44FTp9hOl_Q-28" value="&lt;font style=&quot;font-size: 18px;&quot;&gt;Regional Integration Engine&lt;/font&gt;&lt;div&gt;&lt;font style=&quot;font-size: 18px;&quot;&gt;Enterprise Service Bus&lt;/font&gt;&lt;/div&gt;" style="rounded=0;whiteSpace=wrap;html=1;verticalAlign=middle;" vertex="1" parent="1">
          <mxGeometry x="-480" y="140" width="320" height="140" as="geometry" />
        </mxCell>
        <mxCell id="o5wvPpWDI44FTp9hOl_Q-29" value="" style="edgeStyle=orthogonalEdgeStyle;rounded=0;exitX=0;exitY=0.5;endArrow=none;dashed=0;html=1;strokeColor=#808080;strokeWidth=2;" edge="1" parent="1" source="o5wvPpWDI44FTp9hOl_Q-31" target="o5wvPpWDI44FTp9hOl_Q-30">
          <mxGeometry relative="1" as="geometry" />
        </mxCell>
        <mxCell id="o5wvPpWDI44FTp9hOl_Q-30" value="" style="strokeWidth=2;dashed=0;align=center;fontSize=8;shape=ellipse;fillColor=#808080;strokeColor=none;" vertex="1" parent="1">
          <mxGeometry x="-620" y="195" width="12" height="12" as="geometry" />
        </mxCell>
        <mxCell id="o5wvPpWDI44FTp9hOl_Q-31" value="D" style="strokeWidth=2;dashed=0;align=center;fontSize=8;shape=rect;fillColor=#C7A0FF;fontStyle=1;whiteSpace=wrap;html=1;" vertex="1" parent="1">
          <mxGeometry x="-604" y="213" width="12" height="12" as="geometry" />
        </mxCell>
        <mxCell id="o5wvPpWDI44FTp9hOl_Q-32" value="" style="rounded=0;whiteSpace=wrap;html=1;strokeColor=none;" vertex="1" parent="1">
          <mxGeometry x="-640" y="125" width="80" height="170" as="geometry" />
        </mxCell>
        <mxCell id="o5wvPpWDI44FTp9hOl_Q-33" value="" style="edgeStyle=orthogonalEdgeStyle;rounded=0;exitX=0;exitY=0.5;endArrow=none;dashed=0;html=1;strokeColor=#808080;strokeWidth=2;" edge="1" parent="1" source="o5wvPpWDI44FTp9hOl_Q-35" target="o5wvPpWDI44FTp9hOl_Q-34">
          <mxGeometry relative="1" as="geometry" />
        </mxCell>
        <mxCell id="o5wvPpWDI44FTp9hOl_Q-34" value="" style="strokeWidth=2;dashed=0;align=center;fontSize=8;shape=ellipse;fillColor=#808080;strokeColor=none;" vertex="1" parent="1">
          <mxGeometry x="-620" y="195" width="12" height="12" as="geometry" />
        </mxCell>
        <mxCell id="o5wvPpWDI44FTp9hOl_Q-35" value="D" style="strokeWidth=2;dashed=0;align=center;fontSize=8;shape=rect;fillColor=#C7A0FF;fontStyle=1;whiteSpace=wrap;html=1;" vertex="1" parent="1">
          <mxGeometry x="-604" y="213" width="12" height="12" as="geometry" />
        </mxCell>
        <mxCell id="o5wvPpWDI44FTp9hOl_Q-36" value="" style="edgeStyle=orthogonalEdgeStyle;rounded=0;exitX=0;exitY=0.5;endArrow=none;dashed=0;html=1;strokeColor=#808080;strokeWidth=2;" edge="1" parent="1" source="o5wvPpWDI44FTp9hOl_Q-38" target="o5wvPpWDI44FTp9hOl_Q-37">
          <mxGeometry relative="1" as="geometry" />
        </mxCell>
        <mxCell id="o5wvPpWDI44FTp9hOl_Q-37" value="" style="strokeWidth=2;dashed=0;align=center;fontSize=8;shape=ellipse;fillColor=#808080;strokeColor=none;" vertex="1" parent="1">
          <mxGeometry x="-620" y="145" width="12" height="12" as="geometry" />
        </mxCell>
        <mxCell id="o5wvPpWDI44FTp9hOl_Q-38" value="E" style="strokeWidth=2;dashed=0;align=center;fontSize=8;shape=rect;fillColor=#83BEFF;fontStyle=1;whiteSpace=wrap;html=1;" vertex="1" parent="1">
          <mxGeometry x="-604" y="163" width="12" height="12" as="geometry" />
        </mxCell>
        <mxCell id="o5wvPpWDI44FTp9hOl_Q-39" value="" style="edgeStyle=orthogonalEdgeStyle;rounded=0;exitX=0;exitY=0.5;endArrow=none;dashed=0;html=1;strokeColor=#808080;strokeWidth=2;" edge="1" parent="1" source="o5wvPpWDI44FTp9hOl_Q-41" target="o5wvPpWDI44FTp9hOl_Q-40">
          <mxGeometry relative="1" as="geometry" />
        </mxCell>
        <mxCell id="o5wvPpWDI44FTp9hOl_Q-40" value="" style="strokeWidth=2;dashed=0;align=center;fontSize=8;shape=ellipse;fillColor=#808080;strokeColor=none;" vertex="1" parent="1">
          <mxGeometry x="-618" y="245" width="12" height="12" as="geometry" />
        </mxCell>
        <mxCell id="o5wvPpWDI44FTp9hOl_Q-41" value="C" style="strokeWidth=2;dashed=0;align=center;fontSize=8;shape=rect;fillColor=#FF8080;fontStyle=1;whiteSpace=wrap;html=1;" vertex="1" parent="1">
          <mxGeometry x="-602" y="263" width="12" height="12" as="geometry" />
        </mxCell>
      </root>
    </mxGraphModel>
  </diagram>
</mxfile>
